<svg xmlns="http://www.w3.org/2000/svg" xmlns:xlink="http://www.w3.org/1999/xlink" x="0px" y="0px" viewBox="0 0 1181.8 267.7" style="enable-background:new 0 0 1181.8 267.7;" xml:space="preserve"><style type="text/css">	.st0{fill:#052631;}	.st1{fill:#8BC441;}</style><g id="Elemento">	<g>		<g>			<g>				<g>					<g>						<polygon class="st0" points="133.7,60.1 59.9,134 59.9,74.4 133.7,0.5       "></polygon>					</g>				</g>				<g>					<g>						<polygon class="st1" points="73.9,0.5 0,74.5 59.9,74.4 133.7,0.5       "></polygon>					</g>				</g>			</g>		</g>		<g>			<g>				<g>					<g>						<g>							<polygon class="st1" points="59.8,134 133.7,207.8 74.1,207.8 0.2,134        "></polygon>						</g>					</g>				</g>				<g>					<g>						<polygon class="st0" points="0.2,193.8 74.2,267.7 74.1,207.8 0.2,134       "></polygon>					</g>				</g>			</g>		</g>		<g>			<g>				<g>					<g>						<polygon class="st0" points="133.7,207.8 207.6,133.9 207.6,193.5 133.7,267.4       "></polygon>					</g>				</g>				<g>					<g>						<polygon class="st1" points="193.6,267.4 267.5,193.4 207.6,193.5 133.7,267.4       "></polygon>					</g>				</g>			</g>		</g>		<g>			<g>				<g>					<g>						<g>							<polygon class="st1" points="207.6,133.7 133.6,59.9 193.2,59.9 267.2,133.7        "></polygon>						</g>					</g>				</g>				<g>					<g>						<polygon class="st0" points="267.1,73.9 193.1,0 193.2,59.9 267.2,133.7       "></polygon>					</g>				</g>			</g>		</g>	</g></g><g id="M"></g><g id="O"></g><g id="D"></g><g id="U"></g><g id="L"></g><g id="A"></g><g id="E">	<g>		<polygon class="st0" points="415.7,117.2 390.4,75.7 349.2,75.7 349.2,193.8 387.9,193.8 387.9,135.3 415,177.3 415.7,177.3    442.9,135.3 442.9,193.8 482.2,193.8 482.2,75.7 441,75.7   "></polygon>		<path class="st0" d="M553.3,73.2c-36.4,0-64.6,27.3-64.6,61.6v0.3c0,34.2,27.8,61.2,64.3,61.2c36.4,0,64.6-27.3,64.6-61.6v-0.3   C617.6,100.2,589.8,73.2,553.3,73.2z M577.8,135.1c0,13.8-9.4,26.3-24.5,26.3c-15.2,0-24.8-12.7-24.8-26.7v-0.3   c0-13.8,9.4-26.3,24.5-26.3c15.2,0,24.8,12.7,24.8,26.7V135.1z"></path>		<path class="st0" d="M669.4,75.7h-45.2v118.1H668c47.7,0,71.7-24.8,71.7-59.7v-0.3C739.7,98.8,716.3,75.7,669.4,75.7z    M699.9,134.9c0,17-11.6,24.5-29.7,24.5h-6.6v-49.3h6.6c18,0,29.7,7.4,29.7,24.5V134.9z"></path>		<path class="st0" d="M821.9,141.2c0,14.3-7.6,20.1-18.2,20.1s-18.2-6.2-18.2-20.9V75.7h-40.1v65.1c0,39.1,22.8,55.3,58,55.3   c35.3,0,58.7-15.9,58.7-56.2V75.7h-40.1V141.2z"></path>		<path class="st0" d="M977.1,74.9l-35.6,85.2h-31.7V75.7h-39.5v118.1h57h38h4.2l6.1-15.9h41.3l6.2,15.9h42.8l-49.8-118.9H977.1z    M985.5,149.9l10.8-28.7l10.8,28.7H985.5z"></path>		<path class="st0" d="M1154.3,153.7c14.3-6.9,23.3-18.9,23.3-36.1v-0.3c0-12.1-3.7-20.9-10.8-28c-8.3-8.3-21.6-13.5-42.5-13.5   h-57.7v118.1h39.5v-33.7h8.4l22.3,33.7h45L1154.3,153.7z M1138.3,120.4c0,7.3-5.7,11.5-15.2,11.5h-17v-23.1h17.2   c9.1,0,15,3.7,15,11.3V120.4z"></path>	</g></g><g id="D_00000073003275491265459380000017737171341062761399_"></g><g id="A_00000167382472058175266680000011123319550525955489_"></g><g id="T"></g><g id="A_00000083077191663066555750000017211290352286194073_"></g><g id="C"></g><g id="E_00000064325367900985835320000009594007492657931686_"></g><g id="N"></g><g id="T_00000147942183457949522340000004406424173815541401_"></g><g id="E_00000101809411253832704120000005116078799685360011_"></g><g id="R"></g><g id="S">	<g>		<path d="M499.4,235.3H489v29.9h10.4c9.4,0,15.9-6.5,15.9-15v-0.1C515.3,241.7,508.8,235.3,499.4,235.3z M511.8,250.3   c0,6.6-4.8,11.7-12.4,11.7h-7v-23.7h7C507,238.4,511.8,243.6,511.8,250.3L511.8,250.3z"></path>		<path d="M553.7,235.1l-13.6,30.1h3.5l3.5-7.9h16.3l3.5,7.9h3.6l-13.6-30.1H553.7z M548.4,254.3l6.8-15.2l6.8,15.2H548.4z"></path>		<polygon points="592.5,238.4 602.6,238.4 602.6,265.2 606,265.2 606,238.4 616,238.4 616,235.3 592.5,235.3   "></polygon>		<path d="M651.7,235.1l-13.6,30.1h3.5l3.5-7.9h16.3l3.5,7.9h3.6l-13.6-30.1H651.7z M646.4,254.3l6.8-15.2l6.8,15.2H646.4z"></path>		<path d="M745.3,262.6c-6.6,0-11.6-5.4-11.6-12.3v-0.1c0-6.9,5-12.3,11.6-12.3c4.1,0,6.9,1.7,9.4,4.1l2.3-2.5   c-3-2.8-6.2-4.7-11.7-4.7c-8.8,0-15.1,7-15.1,15.5v0.1c0,8.6,6.4,15.4,15,15.4c5.4,0,8.8-2.1,12-5.3l-2.2-2.2   C752.1,261,749.4,262.6,745.3,262.6z"></path>		<polygon points="788.6,251.7 804.9,251.7 804.9,248.6 788.6,248.6 788.6,238.4 806.8,238.4 806.8,235.3 785.2,235.3 785.2,265.2    807,265.2 807,262.1 788.6,262.1   "></polygon>		<polygon points="858,259.3 839.1,235.3 836,235.3 836,265.2 839.3,265.2 839.3,240.7 858.6,265.2 861.3,265.2 861.3,235.3    858,235.3   "></polygon>		<polygon points="889.7,238.4 899.8,238.4 899.8,265.2 903.2,265.2 903.2,238.4 913.2,238.4 913.2,235.3 889.7,235.3   "></polygon>		<polygon points="945.1,251.7 961.4,251.7 961.4,248.6 945.1,248.6 945.1,238.4 963.3,238.4 963.3,235.3 941.7,235.3 941.7,265.2    963.5,265.2 963.5,262.1 945.1,262.1   "></polygon>		<path d="M1016.1,244.3L1016.1,244.3c0-2.4-0.9-4.5-2.3-6c-1.9-1.9-4.8-3-8.5-3h-12.9v29.9h3.4v-11.6h8.5l8.7,11.6h4.1L1008,253   C1012.7,252.1,1016.1,249.2,1016.1,244.3z M995.9,250.5v-12.1h9.2c4.8,0,7.6,2.2,7.6,5.9v0.1c0,3.8-3.2,6.2-7.7,6.2H995.9z"></path>		<path d="M1056.2,248.6c-6.6-1.4-8.1-3-8.1-5.8v-0.1c0-2.7,2.5-4.8,6.4-4.8c3.1,0,5.9,1,8.6,3.2l2-2.6c-3-2.4-6.2-3.7-10.5-3.7   c-5.7,0-9.8,3.5-9.8,8.2v0.1c0,4.9,3.2,7.1,10,8.6c6.3,1.3,7.8,2.9,7.8,5.7v0.1c0,2.9-2.6,5.1-6.7,5.1c-4.1,0-7.1-1.4-10.3-4.2   l-2.1,2.5c3.6,3.2,7.5,4.8,12.2,4.8c5.9,0,10.2-3.3,10.2-8.5v-0.1C1066,252.5,1062.9,250.1,1056.2,248.6z"></path>	</g></g></svg>